<svg width="18" height="19" viewBox="0 0 18 19" fill="none" xmlns="http://www.w3.org/2000/svg">
<path d="M1 2.02173C1 1.46944 1.44772 1.02173 2 1.02173H6C6.55228 1.02173 7 1.46944 7 2.02173V6.02173C7 6.57401 6.55228 7.02173 6 7.02173H2C1.44772 7.02173 1 6.57401 1 6.02173V2.02173Z" stroke="white" stroke-width="2" stroke-linecap="round" stroke-linejoin="round"/>
<path d="M1 12.0217C1 11.4694 1.44772 11.0217 2 11.0217H6C6.55228 11.0217 7 11.4694 7 12.0217V16.0217C7 16.574 6.55228 17.0217 6 17.0217H2C1.44772 17.0217 1 16.574 1 16.0217V12.0217Z" stroke="white" stroke-width="2" stroke-linecap="round" stroke-linejoin="round"/>
<path d="M11 2.02173C11 1.46944 11.4477 1.02173 12 1.02173H16C16.5523 1.02173 17 1.46944 17 2.02173V6.02173C17 6.57401 16.5523 7.02173 16 7.02173H12C11.4477 7.02173 11 6.57401 11 6.02173V2.02173Z" stroke="white" stroke-width="2" stroke-linecap="round" stroke-linejoin="round"/>
<path d="M11 12.0217C11 11.4694 11.4477 11.0217 12 11.0217H16C16.5523 11.0217 17 11.4694 17 12.0217V16.0217C17 16.574 16.5523 17.0217 16 17.0217H12C11.4477 17.0217 11 16.574 11 16.0217V12.0217Z" stroke="white" stroke-width="2" stroke-linecap="round" stroke-linejoin="round"/>
</svg>
